<svg xmlns="http://www.w3.org/2000/svg" viewBox="0 0 826.517 231.813"><defs><style>.a{fill:#607d8b;}.b{fill:#ff4081;}</style></defs><title>unstar-logo-with-icon</title><path class="a" d="M388.872,140.2c.015,19.5-2.538,28.763-10.606,39.21-10.627,13.8-27.759,21.888-46.67,21.9-32.5.026-56.948-22.805-56.972-53.142l-.051-63.431c-.006-7.289.386-9.062,1.959-12.609a15.4,15.4,0,0,1,13.193-7.5c5.318,0,10.837,3.144,13.007,7.475,1.776,3.545,1.974,5.121,1.98,12.606l.047,59.1c.014,17.729,10.661,29.343,27.012,29.33,8.47-.007,16.741-3.954,21.463-10.261,3.936-5.322,5.507-11.824,5.5-22.659l-.044-55.551c-.006-7.289.386-9.062,1.959-12.609a15.4,15.4,0,0,1,13.193-7.5c5.319,0,10.837,3.143,13.007,7.475,1.776,3.544,1.974,5.12,1.98,12.606Z"/><path class="a" d="M403.229,113.592c-.008-10.244,5.9-16.946,14.761-16.953,6.5-.006,10.639,2.947,13.4,10.035,8.464-7.886,15.357-10.649,26.585-10.658,10.047-.008,18.52,2.94,25.222,8.647,7.688,6.889,10.452,13.978,10.463,27.768l.038,47.474c0,6.9-.191,8.668-1.961,12.018-2.163,4.336-7.282,7.295-12.4,7.3-5.319,0-10.443-2.946-12.613-7.279-1.776-3.347-1.974-4.922-1.98-12.014l-.033-40.58c-.009-11.229-6.318-18.316-16.167-18.308-9.259.008-16.345,7.5-16.337,17.152l.033,41.762c.006,6.895-.19,8.667-1.96,12.017-2.163,4.336-7.282,7.3-12.4,7.3-5.319,0-10.443-2.947-12.614-7.28-1.776-3.347-1.973-4.922-1.979-12.014Z"/><path class="a" d="M576.522,115.817c.006,6.5-5.308,12.612-11.218,12.617-3.152,0-3.348,0-12.217-3.93-4.335-1.967-8.078-2.949-11.033-2.946-4.728,0-7.681,1.975-7.679,5.127,0,3.743,1.58,4.727,15.176,10.035,12.809,5.112,16.948,7.472,22.074,12.589a26.148,26.148,0,0,1,7.106,18.118c.015,19.108-15.537,32.319-38.19,32.337-19.7.015-37.042-9.82-37.051-20.851-.006-6.7,5.9-13.007,12-13.011,3.349,0,3.349,0,14.976,5.109,4.729,2.163,8.473,3.146,11.625,3.143,4.728,0,8.468-2.961,8.465-6.7,0-3.349-2.171-5.12-11.038-8.462-14.385-5.307-18.326-7.274-23.254-10.816-6.9-4.919-9.859-11.418-9.866-20.873-.014-17.926,15.931-31.334,37.206-31.352C561.142,95.934,576.514,105.179,576.522,115.817Z"/><path class="a" d="M627.909,179.8c0,6.9-.19,8.668-1.961,12.018-2.163,4.336-7.283,7.295-12.4,7.3-5.319,0-10.443-2.946-12.613-7.278-1.776-3.348-1.974-4.923-1.98-12.015l-.044-55.748c-7.683.006-12.018-1.172-14.581-4.322a13.3,13.3,0,0,1-3.356-8.665c0-6.7,4.324-11.823,11.218-12.813,1.97-.4,1.97-.4,6.7-.4L598.874,82.9c-.006-6.894.189-8.668,1.96-11.821,2.163-4.336,7.283-7.3,12.6-7.3,5.121,0,10.245,2.947,12.415,7.082,1.775,3.348,1.973,4.923,1.979,12.015l.012,14.971,5.318,0c6.3-.005,7.881.191,11.034,1.764a13,13,0,0,1,6.509,11.223c0,4.728-2.75,9.458-6.491,11.431-3.15,1.578-4.529,1.776-11.03,1.782l-5.319,0Z"/><path class="a" d="M747.993,181.869c.009,10.244-5.9,17.143-14.563,17.15-6.895.006-11.625-3.734-14.586-11.414-7.282,9.067-13.189,12.027-23.826,12.036a42.279,42.279,0,0,1-28.573-11.009q-17.15-15.055-17.172-41.354c-.012-15.957,4.706-27.977,15.139-38.229,8.66-8.674,18.9-13.213,30.129-13.222,10.243-.008,16.352,2.941,24.632,11.406,3.146-7.685,7.477-10.841,14.372-10.847a14.426,14.426,0,0,1,14.392,14.764Zm-69.762-34.418c.013,15.169,7.9,25.209,20.114,25.2,11.819-.009,19.887-10.259,19.876-25.034s-8.1-24.814-20.114-24.8C686.288,122.821,678.22,132.874,678.231,147.451Z"/><path class="a" d="M762.891,112.91c-.008-10.046,5.7-16.551,14.563-16.559,6.5,0,11.232,3.341,14.39,10.233,8.069-8.084,13.189-10.846,19.886-10.851a14.8,14.8,0,0,1,14.787,14.96c0,6.894-2.948,9.654-14.764,13.21-15.755,5.134-19.889,9.077-19.88,19.321l.029,36.443c0,6.9-.19,8.668-1.962,12.018-2.163,4.335-7.282,7.295-12.4,7.3-5.318,0-10.442-2.947-12.613-7.279-1.775-3.347-1.974-4.923-1.979-12.015Z"/><path class="b" d="M205.713,205c-3.33.694-7.066.107-11.459-1.815l-50.892-22.016c-5.078-2.183-13.849-.364-17.609,3.661L87.84,225.378c-6.7,7.191-14.33,8.223-19.31,3.757-3.35-3-4.74-7.814-4.111-14.3l8.569-53.879c.543-5.731-7.084-14.518-12.3-16.956l-50.268-23.52C.571,115.867-.284,109.708.059,106.428.421,103.16,2.607,97.321,13.21,94.95l54.169-12.1c5.628-1.27,11.393-7.62,12.113-13.355L86.3,14.437C87.632,3.629,93.237.893,96.444.225s9.453-.4,14.994,8.967l28.281,47.751c2.926,4.967,10.75,8.493,16.416,7.41L210.6,53.82c10.685-2.057,15.025,2.406,16.66,5.25s3.312,8.831-3.842,17.014l-36.749,41.668c-3.787,4.322-4.728,12.843-1.926,17.868l26.821,48.58c3.158,5.7,3.8,10.662,1.917,14.747A10.934,10.934,0,0,1,205.713,205Zm-75.481-39.637c6.639-1.5,13.7-1.181,19.405,1.275l44.819,19.4-23.6-42.752c-6.015-10.83-4.307-26.64,3.9-35.988l32.356-36.687L159.092,79.9c-12.2,2.364-26.711-4.181-33.031-14.883l-24.9-42.038Z"/></svg>